PathFileType  4	(X/Y/Z) C:\Users\wagnerel85475\Documents\Thesis\opencap-core\Data\3375ffbc-daeb-4a43-b4f7-ac9899cd4c71\MarkerData\PreAugmentation
DataRate	CameraRate	NumFrames	NumMarkers	Units	OrigDataRate	OrigDataStartFrame	OrigNumFrames
60.0	60.0	17	20	m	60.0	220	584
Frame#	Time	Neck			RShoulder			RElbow			RWrist			LShoulder			LElbow			LWrist			midHip			RHip			RKnee			RAnkle			LHip			LKnee			LAnkle			LBigToe			LSmallToe			LHeel			RBigToe			RSmallToe			RHeel			
		X1	Y1	Z1	X2	Y2	Z2	X3	Y3	Z3	X4	Y4	Z4	X5	Y5	Z5	X6	Y6	Z6	X7	Y7	Z7	X8	Y8	Z8	X9	Y9	Z9	X10	Y10	Z10	X11	Y11	Z11	X12	Y12	Z12	X13	Y13	Z13	X14	Y14	Z14	X15	Y15	Z15	X16	Y16	Z16	X17	Y17	Z17	X18	Y18	Z18	X19	Y19	Z19	X20	Y20	Z20	

220	3.6500000	0.2825900	1.8421100	-0.0966600	0.2808000	1.8107800	0.0775400	0.2274300	1.5086000	0.1514400	0.3195400	1.2202200	0.2015800	0.2706300	1.8779600	-0.2638600	0.4154900	2.1220400	-0.4262900	0.4375300	2.4088400	-0.3823000	0.3091700	1.2636200	-0.1051100	0.3249500	1.2631800	0.0171800	0.2607200	0.7756400	-0.0305000	0.1781200	0.2514000	-0.0233000	0.3007200	1.2571000	-0.2231700	0.2359900	0.7819000	-0.1792500	0.1850800	0.2594700	-0.1955800	0.4074600	0.1984800	-0.2204900	0.3653900	0.2007900	-0.2574400	0.1267400	0.2085200	-0.1912000	0.4244200	0.1991700	-0.0169600	0.3732000	0.2016900	0.0131000	0.1284700	0.2093500	-0.0381800
221	3.6666667	0.2763900	1.8425700	-0.0989300	0.2801300	1.8088600	0.0775900	0.2274100	1.5086100	0.1515200	0.3196300	1.2199700	0.2013300	0.2698200	1.8758600	-0.2640000	0.4103300	2.1232600	-0.4241400	0.4366200	2.4086500	-0.3823000	0.3143200	1.2639700	-0.1079000	0.3299000	1.2679300	0.0143900	0.2607300	0.7758500	-0.0303800	0.1780800	0.2515700	-0.0232900	0.3074500	1.2603000	-0.2263700	0.2371900	0.7825300	-0.1790800	0.1850400	0.2571300	-0.1959000	0.4082600	0.1986000	-0.2205500	0.3661100	0.2009400	-0.2573200	0.1196700	0.2044800	-0.1939800	0.4250800	0.1975000	-0.0164800	0.3731000	0.2015100	0.0131700	0.1292000	0.2095500	-0.0381200
222	3.6833333	0.2762200	1.8428700	-0.0988600	0.2806500	1.8090200	0.0774500	0.2331600	1.5083400	0.1485500	0.3128200	1.2181200	0.1997500	0.2706200	1.8779700	-0.2638600	0.4096300	2.1231300	-0.4241800	0.4375700	2.4086400	-0.3823400	0.3148400	1.2660700	-0.1077400	0.3241600	1.2677400	0.0123600	0.2548300	0.7749900	-0.0278400	0.1840900	0.2528200	-0.0259600	0.3063300	1.2617600	-0.2257100	0.2296300	0.7813300	-0.1815600	0.1852900	0.2571800	-0.1958200	0.4133900	0.1999400	-0.2181900	0.3773600	0.2011000	-0.2524600	0.1197300	0.2048600	-0.1938100	0.4241800	0.1973700	-0.0167000	0.3731900	0.2016900	0.0130800	0.1285000	0.2094500	-0.0381700
223	3.7000000	0.2703800	1.8433000	-0.0963800	0.2801200	1.8089100	0.0775900	0.2333600	1.5101300	0.1486600	0.3128100	1.2205600	0.1994600	0.2637200	1.8788500	-0.2663200	0.4101900	2.1232000	-0.4241700	0.4480100	2.4018300	-0.3819400	0.3073400	1.2687400	-0.1102100	0.3231600	1.2704000	0.0122600	0.2607900	0.7783200	-0.0302800	0.1840200	0.2530700	-0.0259400	0.3073000	1.2648900	-0.2264200	0.2304600	0.7740900	-0.1816100	0.1850500	0.2571100	-0.1959300	0.4081500	0.1965300	-0.2207600	0.3720400	0.1997700	-0.2547100	0.1128700	0.2030000	-0.1964100	0.4250500	0.1975000	-0.0164900	0.3731400	0.2015000	0.0131500	0.1291300	0.2098000	-0.0380900
224	3.7166667	0.2762000	1.8428800	-0.0989000	0.2806700	1.8091200	0.0774300	0.2334700	1.5054800	0.1485800	0.3128600	1.2201500	0.1996600	0.2643000	1.8788800	-0.2663100	0.4095100	2.1231300	-0.4242600	0.4433700	2.4030300	-0.3844200	0.3081800	1.2684500	-0.1100300	0.3238600	1.2702100	0.0123100	0.2607700	0.7781300	-0.0304200	0.1780800	0.2516600	-0.0232700	0.3064400	1.2640300	-0.2257300	0.2293200	0.7760600	-0.1817000	0.1852100	0.2571700	-0.1958400	0.4073400	0.1964200	-0.2207200	0.3653800	0.2007500	-0.2574300	0.1129100	0.2034000	-0.1961900	0.4242000	0.1973700	-0.0167100	0.3732100	0.2016300	0.0130900	0.1282900	0.2143800	-0.0381700
225	3.7333333	0.2763100	1.8426000	-0.0989600	0.2801100	1.8089500	0.0775900	0.2332900	1.5037600	0.1486600	0.3129100	1.2201100	0.1993800	0.2637000	1.8788500	-0.2663500	0.4160800	2.1220700	-0.4263300	0.4425100	2.4051100	-0.3840500	0.3072900	1.2687400	-0.1102100	0.3231100	1.2704100	0.0122600	0.2607700	0.7782700	-0.0303100	0.1839800	0.2532600	-0.0259200	0.3071300	1.2626300	-0.2264200	0.2304800	0.7769700	-0.1815600	0.1850300	0.2570900	-0.1959200	0.4081800	0.1965600	-0.2207700	0.3721400	0.2023900	-0.2549800	0.1129300	0.2029600	-0.1963700	0.4250700	0.1975100	-0.0165000	0.3731200	0.2014600	0.0131600	0.1289400	0.2146400	-0.0381000
226	3.7500000	0.2702100	1.8435800	-0.0963100	0.2806600	1.8090000	0.0774300	0.2334900	1.5054200	0.1485400	0.3126300	1.2229700	0.1996100	0.2642500	1.8788300	-0.2663000	0.4151900	2.1200600	-0.4266300	0.4492400	2.4035900	-0.3817200	0.3084500	1.2660600	-0.1100000	0.3238400	1.2702000	0.0123100	0.2607800	0.7780900	-0.0304400	0.1839900	0.2530500	-0.0259300	0.3064700	1.2640100	-0.2257400	0.2292400	0.7763100	-0.1816700	0.1851900	0.2571600	-0.1958200	0.4074200	0.1964600	-0.2207500	0.3714000	0.2022100	-0.2598400	0.1129100	0.2033000	-0.1961800	0.4242100	0.1973900	-0.0167300	0.3732300	0.2015600	0.0130900	0.1274600	0.2123700	-0.0378100
227	3.7666667	0.2703300	1.8432900	-0.0964100	0.2734500	1.8096500	0.0756100	0.2391600	1.5052200	0.1458400	0.3128400	1.2200900	0.1993600	0.2632800	1.8767000	-0.2664800	0.4160000	2.1200400	-0.4265400	0.4479100	2.4018100	-0.3819200	0.3074900	1.2663600	-0.1101800	0.3230500	1.2704000	0.0122500	0.2607800	0.7782800	-0.0303100	0.1839600	0.2532400	-0.0259200	0.3010100	1.2625700	-0.2239400	0.2303200	0.7762800	-0.1817200	0.1850200	0.2571100	-0.1959200	0.4140900	0.1979900	-0.2232300	0.3721600	0.2023200	-0.2597400	0.1131900	0.2051900	-0.1962000	0.4250800	0.1975100	-0.0164800	0.3731100	0.2014200	0.0131700	0.1281200	0.2125200	-0.0377400
228	3.7833333	0.2761100	1.8428600	-0.0988800	0.2740300	1.8098000	0.0754400	0.2389400	1.5033900	0.1457100	0.3115300	1.2203900	0.1949600	0.2576000	1.8775000	-0.2688800	0.4152600	2.1199100	-0.4266700	0.4493200	2.4036000	-0.3816800	0.3081400	1.2684600	-0.1100100	0.3237400	1.2702100	0.0123100	0.2548100	0.7773300	-0.0277700	0.1829500	0.2552300	-0.0256200	0.3062200	1.2663200	-0.2257500	0.2292700	0.7764600	-0.1816600	0.1787400	0.2557500	-0.1932800	0.4133300	0.1978800	-0.2184700	0.3717800	0.2004800	-0.2553400	0.1061300	0.2018500	-0.1985500	0.4242100	0.1974100	-0.0167000	0.3731800	0.2015900	0.0131300	0.1275000	0.2124100	-0.0378300
229	3.8000000	0.2763100	1.8425600	-0.0990200	0.2793700	1.8109000	0.0729500	0.2393900	1.5069600	0.1458300	0.3116000	1.2200800	0.1947100	0.2510400	1.8805300	-0.2712900	0.4160800	2.1198800	-0.4265400	0.4481100	2.4037600	-0.3815800	0.3074900	1.2666100	-0.1053300	0.3173400	1.2703800	0.0149700	0.2544800	0.7801200	-0.0277300	0.1839900	0.2531400	-0.0259400	0.3006200	1.2626200	-0.2239300	0.2302800	0.7809600	-0.1817700	0.1850700	0.2570900	-0.1959300	0.4141000	0.1979700	-0.2184700	0.3785700	0.2021600	-0.2528600	0.1062100	0.2014700	-0.1987500	0.4250500	0.1974900	-0.0164600	0.3733700	0.1998300	0.0133700	0.1281000	0.2124100	-0.0377400
230	3.8166667	0.2761900	1.8428400	-0.0989200	0.2799900	1.8110500	0.0727700	0.2391000	1.5051300	0.1457000	0.3114100	1.2184200	0.1949800	0.2579700	1.8797500	-0.2687500	0.4153300	2.1198800	-0.4266800	0.4493500	2.4019000	-0.3819500	0.3020000	1.2662500	-0.1073900	0.3180000	1.2701500	0.0150300	0.2545600	0.7797100	-0.0278800	0.1831200	0.2506300	-0.0256200	0.2998100	1.2617200	-0.2232400	0.2290600	0.7822700	-0.1819700	0.1852100	0.2571600	-0.1958600	0.4073900	0.1964500	-0.2207400	0.3714200	0.2023100	-0.2551100	0.1128400	0.2033000	-0.1962100	0.4241900	0.1973800	-0.0166900	0.3734400	0.1999800	0.0133400	0.1275500	0.2123000	-0.0378300
231	3.8333333	0.2763200	1.8425700	-0.0990200	0.2793700	1.8109200	0.0729500	0.2393500	1.5069400	0.1458100	0.3115800	1.2201200	0.1946800	0.2509900	1.8805100	-0.2712900	0.4161300	2.1199200	-0.4265200	0.4482100	2.4025400	-0.3818100	0.3136200	1.2687900	-0.1079400	0.3231400	1.2704300	0.0122800	0.2545500	0.7799600	-0.0277700	0.1830500	0.2508000	-0.0256000	0.3007400	1.2648800	-0.2239500	0.2239300	0.7801700	-0.1791900	0.1850700	0.2571100	-0.1959400	0.4082400	0.1965600	-0.2207800	0.3783600	0.2065100	-0.2576600	0.1132300	0.2051400	-0.1961900	0.4250400	0.1974800	-0.0164400	0.3733400	0.1998300	0.0133800	0.1281200	0.2123900	-0.0377400
232	3.8500000	0.2761800	1.8428200	-0.0989300	0.2799500	1.8109800	0.0727700	0.2390700	1.5051200	0.1456800	0.3117200	1.2131500	0.1949600	0.2513500	1.8783100	-0.2713600	0.4211200	2.1185900	-0.4288100	0.4495900	2.4036400	-0.3817200	0.3144900	1.2684800	-0.1077600	0.3237500	1.2702100	0.0123200	0.2547100	0.7801800	-0.0276800	0.1831200	0.2506200	-0.0256300	0.2999500	1.2640500	-0.2232400	0.2291100	0.7803400	-0.1818500	0.1852200	0.2571700	-0.1958700	0.4074400	0.1964800	-0.2207600	0.3780000	0.2045700	-0.2580600	0.1128800	0.2032400	-0.1962200	0.4241600	0.1973800	-0.0166800	0.3734000	0.1999800	0.0133600	0.1275600	0.2123200	-0.0378400
233	3.8666667	0.2763800	1.8425400	-0.0990400	0.2793400	1.8109300	0.0729500	0.2391300	1.5051500	0.1457900	0.3119500	1.2147800	0.1946800	0.2568200	1.8775600	-0.2738600	0.4161500	2.1198100	-0.4264800	0.4482400	2.4038500	-0.3816000	0.3072400	1.2688000	-0.1101900	0.3228700	1.2728700	0.0122400	0.2547500	0.7802100	-0.0275400	0.1830600	0.2507800	-0.0256000	0.3007300	1.2649200	-0.2239600	0.2241800	0.7762200	-0.1789700	0.1850600	0.2571000	-0.1959400	0.4141100	0.1979900	-0.2232100	0.3728700	0.2033100	-0.2602600	0.1132300	0.2051800	-0.1962000	0.4250300	0.1974700	-0.0164400	0.3733500	0.1998600	0.0133700	0.1281100	0.2123900	-0.0377500
234	3.8833333	0.2820900	1.8420900	-0.1014700	0.2799700	1.8110300	0.0727500	0.2390500	1.5051200	0.1456700	0.3116900	1.2131600	0.1949600	0.2579000	1.8797100	-0.2736000	0.4210800	2.1186300	-0.4288200	0.4552000	2.4023100	-0.3793400	0.3081300	1.2684600	-0.1100100	0.3234900	1.2726200	0.0123000	0.2545600	0.7775400	-0.0277600	0.1840400	0.2530300	-0.0259400	0.2999600	1.2640600	-0.2232600	0.2292900	0.7763300	-0.1816300	0.1852100	0.2571800	-0.1958800	0.4132800	0.1978900	-0.2232100	0.3714000	0.2022200	-0.2598900	0.1131700	0.2054700	-0.1960500	0.4241600	0.1973800	-0.0166900	0.3674000	0.2001900	0.0158300	0.1275600	0.2123700	-0.0378400
235	3.9000000	0.2822400	1.8418400	-0.1016100	0.2793500	1.8110100	0.0729200	0.2390900	1.5051400	0.1457500	0.3117500	1.2128600	0.1947100	0.2568600	1.8775300	-0.2739200	0.4161700	2.1198700	-0.4264700	0.4537700	2.4026100	-0.3791800	0.3136000	1.2687600	-0.1079500	0.3232000	1.2704100	0.0122700	0.2547100	0.7778500	-0.0276300	0.1839600	0.2531900	-0.0259300	0.3008300	1.2603200	-0.2239400	0.2306500	0.7795700	-0.1815000	0.1851000	0.2571000	-0.1959300	0.4200300	0.1994200	-0.2209300	0.3782400	0.2038800	-0.2573800	0.1065300	0.2038600	-0.1985700	0.4249700	0.1974600	-0.0164400	0.3673300	0.2000100	0.0158400	0.1281200	0.2124300	-0.0377300
236	3.9166667	0.2821000	1.8420900	-0.1014900	0.2799700	1.8110600	0.0727400	0.2388600	1.5033400	0.1456400	0.3116300	1.2130800	0.1949600	0.2579200	1.8796100	-0.2736600	0.4209100	2.1166500	-0.4290800	0.4552300	2.4019800	-0.3793900	0.3085500	1.2684200	-0.1051600	0.3179700	1.2701400	0.0150500	0.2547000	0.7775600	-0.0277800	0.1840100	0.2530000	-0.0259600	0.2999400	1.2640500	-0.2232100	0.2293400	0.7838100	-0.1815900	0.1852100	0.2571500	-0.1958700	0.4133500	0.1979100	-0.2184900	0.3777500	0.2018100	-0.2577800	0.1063800	0.2041800	-0.1984300	0.4241500	0.1973600	-0.0166900	0.3673600	0.2002000	0.0158400	0.1275700	0.2123600	-0.0378500
